<?xml version="1.0" encoding="utf-8"?>
<!-- Generator: Adobe Illustrator 24.0.2, SVG Export Plug-In . SVG Version: 6.00 Build 0)  -->
<svg version="1.0" xmlns="http://www.w3.org/2000/svg" xmlns:xlink="http://www.w3.org/1999/xlink" x="0px" y="0px"
	 viewBox="0 0 707.79 707.79" style="enable-background:new 0 0 707.79 707.79;" xml:space="preserve">
<style type="text/css">
	.st0{fill:#11398C;}
	.st1{fill:#D96404;}
	.st2{fill:#118C5A;}
</style>
<g id="BG_1_">
</g>
<g id="graphics">
	<g>
		<g>
			<path class="st0" d="M224.55,152.94c-2.05,3.43,0.71,6.73,3.89,6.67c2.3-0.05,4.68,0.27,7.05,0.99c2.37,0.72,4.52,1.79,6.4,3.11
				c2.6,1.83,6.74,0.63,6.95-3.36c0.38-7.2-2.95-13.51-8.63-15.24C234.54,143.38,228.25,146.75,224.55,152.94z"/>
			<path class="st0" d="M462.71,165.87c2.15-0.82,4.5-1.33,6.97-1.45c2.47-0.12,4.86,0.16,7.08,0.77c3.07,0.85,6.56-1.68,5.41-5.5
				c-2.07-6.91-7.33-11.73-13.26-11.44c-5.92,0.28-10.7,5.58-12.1,12.66C456.02,164.83,459.73,167,462.71,165.87z"/>
			<path class="st0" d="M551.45,442.44c3.43-5.34,5.18-11.52,5.18-17.66c0-17.61-13.71-33.55-37.86-35.17
				c-0.34-0.09-0.69-0.16-1.04-0.2c-32.29-33.11-47.09-113.32-38.31-161.51c29.38-2.29,50.04-19.55,57.76-49.02
				c3.41-13.03-2.64-23.07-15.17-25.45c-6.14-1.17-10.22-4.82-12.48-11.14c-0.07-0.2-0.15-0.4-0.24-0.59
				c-11.85-26.27-32.37-29.53-45.97-30.73c0-0.05,0.05-0.16,0-0.15c-4.92,0.28-11.01,0.26-7.76-3.35
				c8.68-9.63,10.21-14.18,11.21-17.68c2.21-7.74-6-12.79-12.15-11.77c-33.78,5.58-66.89,35.75-84.39,76.65
				c-2.29,5.35-6.18,14.52-11.04,26.29c-6.18-14.84-18.76-50.59-55-69.42c-15.96-8.29-31.65-10.9-48.05-9.88
				c-13.69,0.83-42.14,2.56-57.48,36.95c-0.47,0.47-4.2,3.63-20.35,5.36c-9.91,1.06-19.1,0.98-19.19,0.97c-0.03,0-0.06,0-0.09,0
				c-4.29,0-7.79,3.45-7.85,7.75c-0.57,44.56,19.52,63.98,34.58,72.26c0.02,0.01,0.04,0.03,0.06,0.04
				c9.07,5.46,20.54,6.75,31.17,6.75c5.77,0,11.02-0.37,14.93-0.77c2.95,18.63,8.44,93.99-28.87,158.66
				c-23.95,1.78-37.43,17.72-37.43,35.15c0,6.15,1.75,12.32,5.17,17.66c0,0,8.46,15.7,34.31,15.7c4.51,0,74.56,0,84.39,0
				c4.34,0,7.85-3.52,7.85-7.85c0-4.34-3.52-7.85-7.85-7.85c-9.78,0-78.39,0-86.98,0c-14.64,0-21.19-8.87-21.19-17.66
				c0-11.19,9.78-19.09,24.81-19.57c6.89,1.53,15.24,5.44,18.67,15.22c1.44,4.1,5.93,6.25,10.01,4.81
				c4.09-1.44,6.25-5.92,4.81-10.01c-3.54-10.09-10.66-17.7-20.5-22.17c34.96-63.85,32.32-137.44,28.51-162.63
				c-0.71-4.65-2.53-10.48-2.89-11.29c-1.42-3.19-4.86-5.13-8.44-4.54c-6.83,1.12-25.41,3.07-38.27-1.24
				c-0.37-0.13-0.73-0.26-1.08-0.39c-14.07-6.13-23.39-18.19-27.56-35.39c5.1-1.16,12.48-5.31,17.29-18.88
				c14.82-2.35,23.23-6.7,26.27-13.53c7.24-16.35,17.57-22.99,28.97-25.83c5.9-1.47,21.1-3.53,34.02,5.12
				c3.62,2.42,6.53,6.38,8.28,11.45c2.92,8.45,0.81,17.9-5.95,26.6c-17.51,22.54-21.94,34.04-20.32,49
				c1.02,9.43,6.16,17.16,14.47,21.77c11.42,6.33,26.37,6.54,37.78-0.5c12.29-7.59,19.41-21.09,22.86-43.85
				c0.01-0.04,0.02-0.08,0.03-0.12c-2.98-7.64-7.72-18.13-13.53-25.44c0.45,6.34,1.37,14.34-0.5,22.8
				c-3.75,17-6.14,25.52-15.69,32.47c-7.39,5.37-17.16,4.33-23.33,0.91c-3.83-2.12-6-5.39-6.47-9.72
				c-0.88-8.09,0.03-15.7,17.11-37.67c10.76-13.84,14.16-31.4,5.97-46.89c1.97,1.01,4.24,2.33,6.37,3.88v0
				c0,0,10.95,6.94,22.41,21.7c3.32,4.28,14.97,19.63,25.35,50.78c-23.75,58.97-58.48,151.66-58.48,189.31
				c0,37.08,30.17,67.25,67.25,67.25c37.08,0,67.25-30.17,67.25-67.25c0-20.38-12.15-63.85-36.1-129.21
				c-5.47-14.93-11.03-29.52-16.23-42.84l-7.98,22.71c20.98,55.01,44.6,123.68,44.6,149.34c0,28.42-23.12,51.54-51.54,51.54
				c-28.42,0-51.54-23.12-51.54-51.54c0-39.79,44.67-152.03,59.7-189.13c0-0.01-0.01-0.02-0.01-0.02
				c8.38-20.7,14.88-35.99,16.99-40.92c11.14-26.03,33.65-54.15,61.07-64.25c-20.49,19.62-13.15,29.9-5.66,29.9
				c10.13,0,12.17,0,20.3,0c12.62,1.04,25.8,2.46,34.46,21.4c3.4,9.28,9.77,15.95,18.26,19.27c-1.84,4.61-3.25,12.51,5.87,16.64
				c-6.91,16.31-22.05,31.51-54.84,28.23c-4.33-0.44-8.16,2.72-8.59,7.04c-0.43,4.32,2.72,8.16,7.03,8.59
				c0.31,0.03,0.62,0.05,0.94,0.08c-4.05,25.05-2.58,57.84,4.1,89.1c6.94,32.48,18.7,59.51,33.56,77.61
				c-8.41,4.59-14.55,11.67-17.74,20.79c-1.8,5.13,2.03,10.45,7.41,10.45c3.24,0,6.28-2.02,7.41-5.26
				c3.41-9.73,11.69-13.64,18.56-15.19c32.47,1.52,31.06,37.2,2.91,37.2c-13.11,0-77.25,0-90.07,0c-4.34,0-7.85,3.52-7.85,7.85
				c0,4.34,3.52,7.85,7.85,7.85c12.83,0,65.23,0,90.07,0C544.57,458.15,551.45,442.44,551.45,442.44z"/>
		</g>
		<g>
			<path class="st1" d="M88.67,556.67l-0.1-41.29L68.32,549.4h-7.18l-20.15-33.13v40.41H26.04v-68.82h13.17l25.76,42.77l25.36-42.77
				h13.08l0.2,68.82H88.67z"/>
			<path class="st1" d="M119.93,487.85h15.93v68.82h-15.93V487.85z"/>
			<path class="st1" d="M242.61,556.67l-0.1-41.29l-20.25,34.02h-7.18l-20.15-33.13v40.41h-14.94v-68.82h13.17l25.76,42.77
				l25.36-42.77h13.08l0.2,68.82H242.61z"/>
			<path class="st1" d="M319.19,541.92h-31.95l-6.1,14.75h-16.32l30.67-68.82h15.73L342,556.67h-16.71L319.19,541.92z
				 M314.18,529.83l-10.91-26.35l-10.91,26.35H314.18z"/>
			<path class="st1" d="M343.77,549.89l5.41-11.99c5.8,4.23,14.45,7.18,22.71,7.18c9.44,0,13.27-3.15,13.27-7.37
				c0-12.88-40.01-4.03-40.01-29.59c0-11.7,9.44-21.43,29-21.43c8.65,0,17.5,2.06,23.89,6.09l-4.92,12.09
				c-6.39-3.64-12.98-5.41-19.07-5.41c-9.44,0-13.08,3.54-13.08,7.87c0,12.68,40.01,3.93,40.01,29.2c0,11.5-9.54,21.33-29.2,21.33
				C360.87,557.85,349.86,554.61,343.77,549.89z"/>
			<path class="st1" d="M407.57,522.26c0-20.74,15.93-35.59,37.36-35.59c11.9,0,21.83,4.33,28.31,12.19l-10.22,9.44
				c-4.62-5.31-10.42-8.06-17.3-8.06c-12.88,0-22.02,9.04-22.02,22.02s9.14,22.02,22.02,22.02c6.88,0,12.68-2.75,17.3-8.16
				l10.22,9.44c-6.49,7.96-16.42,12.29-28.41,12.29C423.49,557.85,407.57,543.01,407.57,522.26z"/>
			<path class="st1" d="M478.15,522.26c0-20.45,15.93-35.59,37.65-35.59c21.63,0,37.65,15.04,37.65,35.59
				c0,20.55-16.03,35.59-37.65,35.59C494.08,557.85,478.15,542.71,478.15,522.26z M537.33,522.26c0-13.08-9.24-22.02-21.53-22.02
				c-12.29,0-21.53,8.95-21.53,22.02c0,13.08,9.24,22.02,21.53,22.02C528.09,544.28,537.33,535.34,537.33,522.26z"/>
			<path class="st1" d="M578.72,500.83H556.7v-12.98h59.97v12.98h-22.02v55.84h-15.93V500.83z"/>
			<path class="st1" d="M667.1,541.92h-31.95l-6.1,14.75h-16.32l30.67-68.82h15.73l30.77,68.82h-16.71L667.1,541.92z M662.09,529.83
				l-10.91-26.35l-10.91,26.35H662.09z"/>
		</g>
		<g>
			<path class="st2" d="M49.25,623.79H30.81l-3.52,8.51h-9.42l17.7-39.7h9.07l17.75,39.7h-9.64L49.25,623.79z M46.36,616.81
				l-6.3-15.2l-6.3,15.2H46.36z"/>
			<path class="st2" d="M96.72,590.21v42.08h-8.45v-3.52c-2.21,2.67-5.44,3.97-9.53,3.97c-8.62,0-15.26-6.13-15.26-15.71
				s6.64-15.71,15.26-15.71c3.74,0,6.92,1.19,9.13,3.69v-14.8H96.72z M88.04,617.04c0-5.27-3.4-8.45-7.77-8.45
				c-4.42,0-7.83,3.18-7.83,8.45s3.4,8.45,7.83,8.45C84.64,625.49,88.04,622.31,88.04,617.04z"/>
			<path class="st2" d="M102.61,617.04c0-9.19,7.09-15.71,16.79-15.71c9.7,0,16.73,6.52,16.73,15.71s-7.03,15.71-16.73,15.71
				C109.7,632.75,102.61,626.23,102.61,617.04z M127.17,617.04c0-5.27-3.35-8.45-7.77-8.45s-7.83,3.18-7.83,8.45s3.4,8.45,7.83,8.45
				S127.17,622.31,127.17,617.04z"/>
			<path class="st2" d="M175.26,617.04c0,9.58-6.64,15.71-15.2,15.71c-3.8,0-6.92-1.19-9.19-3.69v14.24h-8.85v-41.52h8.45v3.52
				c2.21-2.67,5.5-3.97,9.58-3.97C168.63,601.33,175.26,607.45,175.26,617.04z M166.3,617.04c0-5.27-3.35-8.45-7.77-8.45
				s-7.77,3.18-7.77,8.45s3.35,8.45,7.77,8.45S166.3,622.31,166.3,617.04z"/>
			<path class="st2" d="M178.89,617.04c0-9.19,7.09-15.71,17.02-15.71c6.41,0,11.46,2.78,13.67,7.77l-6.86,3.69
				c-1.65-2.89-4.08-4.2-6.86-4.2c-4.48,0-8,3.12-8,8.45s3.52,8.45,8,8.45c2.78,0,5.22-1.25,6.86-4.2l6.86,3.74
				c-2.21,4.88-7.26,7.71-13.67,7.71C185.98,632.75,178.89,626.23,178.89,617.04z"/>
			<path class="st2" d="M213.6,592.59c0-2.78,2.21-4.93,5.5-4.93c3.29,0,5.5,2.04,5.5,4.76c0,2.95-2.21,5.1-5.5,5.1
				C215.81,597.53,213.6,595.37,213.6,592.59z M214.67,601.78h8.85v30.51h-8.85V601.78z"/>
			<path class="st2" d="M229.48,617.04c0-9.19,7.09-15.71,16.79-15.71c9.7,0,16.73,6.52,16.73,15.71s-7.03,15.71-16.73,15.71
				C236.57,632.75,229.48,626.23,229.48,617.04z M254.03,617.04c0-5.27-3.35-8.45-7.77-8.45s-7.83,3.18-7.83,8.45
				s3.4,8.45,7.83,8.45S254.03,622.31,254.03,617.04z M248.65,589.7h9.53l-10.27,8.17h-6.92L248.65,589.7z"/>
			<path class="st2" d="M300.09,614.83v17.47h-8.85v-16.11c0-4.93-2.27-7.2-6.18-7.2c-4.25,0-7.32,2.61-7.32,8.22v15.09h-8.85
				v-30.51h8.45v3.57c2.38-2.61,5.96-4.03,10.1-4.03C294.64,601.33,300.09,605.52,300.09,614.83z"/>
			<path class="st2" d="M355.21,590.21v42.08h-8.45v-3.52c-2.21,2.67-5.44,3.97-9.53,3.97c-8.62,0-15.26-6.13-15.26-15.71
				s6.64-15.71,15.26-15.71c3.74,0,6.92,1.19,9.13,3.69v-14.8H355.21z M346.53,617.04c0-5.27-3.4-8.45-7.77-8.45
				c-4.42,0-7.83,3.18-7.83,8.45s3.4,8.45,7.83,8.45C343.13,625.49,346.53,622.31,346.53,617.04z"/>
			<path class="st2" d="M393.09,619.53h-23.08c0.85,3.8,4.08,6.13,8.73,6.13c3.23,0,5.56-0.96,7.66-2.95l4.71,5.1
				c-2.84,3.23-7.09,4.93-12.59,4.93c-10.55,0-17.41-6.64-17.41-15.71c0-9.13,6.98-15.71,16.28-15.71c8.96,0,15.88,6.01,15.88,15.82
				C393.26,617.83,393.15,618.8,393.09,619.53z M369.9,614.37h15.03c-0.62-3.86-3.52-6.35-7.49-6.35
				C373.41,608.02,370.52,610.46,369.9,614.37z"/>
			<path class="st2" d="M451.96,632.3l-0.06-23.82l-11.68,19.62h-4.14l-11.63-19.11v23.31h-8.62v-39.7h7.6l14.86,24.67l14.63-24.67
				h7.54l0.11,39.7H451.96z"/>
			<path class="st2" d="M496.36,614.88v17.41h-8.28v-3.8c-1.64,2.78-4.82,4.25-9.3,4.25c-7.15,0-11.4-3.97-11.4-9.25
				c0-5.39,3.8-9.13,13.1-9.13h7.03c0-3.8-2.27-6.01-7.03-6.01c-3.23,0-6.58,1.08-8.79,2.84l-3.18-6.18
				c3.35-2.38,8.28-3.69,13.16-3.69C490.98,601.33,496.36,605.64,496.36,614.88z M487.52,622.65v-3.12h-6.07
				c-4.14,0-5.44,1.53-5.44,3.57c0,2.21,1.87,3.69,4.99,3.69C483.94,626.79,486.5,625.43,487.52,622.65z"/>
			<path class="st2" d="M501.41,629.46l2.95-6.35c2.72,1.76,6.86,2.95,10.61,2.95c4.08,0,5.62-1.08,5.62-2.78
				c0-4.99-18.43,0.11-18.43-12.08c0-5.79,5.22-9.87,14.12-9.87c4.2,0,8.85,0.96,11.74,2.67l-2.95,6.3
				c-3.01-1.7-6.01-2.27-8.79-2.27c-3.97,0-5.67,1.25-5.67,2.83c0,5.22,18.43,0.17,18.43,12.19c0,5.67-5.28,9.7-14.41,9.7
				C509.46,632.75,504.24,631.33,501.41,629.46z"/>
			<path class="st2" d="M532.2,617.04c0-9.19,7.09-15.71,17.02-15.71c6.41,0,11.46,2.78,13.67,7.77l-6.86,3.69
				c-1.64-2.89-4.08-4.2-6.86-4.2c-4.48,0-8,3.12-8,8.45s3.52,8.45,8,8.45c2.78,0,5.22-1.25,6.86-4.2l6.86,3.74
				c-2.21,4.88-7.26,7.71-13.67,7.71C539.29,632.75,532.2,626.23,532.2,617.04z"/>
			<path class="st2" d="M565.32,617.04c0-9.19,7.09-15.71,16.79-15.71c9.7,0,16.73,6.52,16.73,15.71s-7.03,15.71-16.73,15.71
				C572.41,632.75,565.32,626.23,565.32,617.04z M589.88,617.04c0-5.27-3.35-8.45-7.77-8.45s-7.83,3.18-7.83,8.45
				s3.4,8.45,7.83,8.45S589.88,622.31,589.88,617.04z"/>
			<path class="st2" d="M624.42,630.82c-1.82,1.3-4.48,1.93-7.2,1.93c-7.2,0-11.4-3.69-11.4-10.95v-12.54h-4.71v-6.81h4.71v-7.43
				h8.85v7.43h7.6v6.81h-7.6v12.42c0,2.61,1.42,4.03,3.8,4.03c1.3,0,2.61-0.4,3.57-1.13L624.42,630.82z"/>
			<path class="st2" d="M656.41,614.88v17.41h-8.28v-3.8c-1.64,2.78-4.82,4.25-9.3,4.25c-7.15,0-11.4-3.97-11.4-9.25
				c0-5.39,3.8-9.13,13.1-9.13h7.03c0-3.8-2.27-6.01-7.03-6.01c-3.23,0-6.58,1.08-8.79,2.84l-3.18-6.18
				c3.35-2.38,8.28-3.69,13.16-3.69C651.02,601.33,656.41,605.64,656.41,614.88z M647.56,622.65v-3.12h-6.07
				c-4.14,0-5.44,1.53-5.44,3.57c0,2.21,1.87,3.69,4.99,3.69C643.99,626.79,646.54,625.43,647.56,622.65z"/>
			<path class="st2" d="M661.45,629.46l2.95-6.35c2.72,1.76,6.86,2.95,10.61,2.95c4.08,0,5.62-1.08,5.62-2.78
				c0-4.99-18.43,0.11-18.43-12.08c0-5.79,5.22-9.87,14.12-9.87c4.2,0,8.85,0.96,11.74,2.67l-2.95,6.3
				c-3.01-1.7-6.01-2.27-8.79-2.27c-3.97,0-5.67,1.25-5.67,2.83c0,5.22,18.43,0.17,18.43,12.19c0,5.67-5.28,9.7-14.41,9.7
				C669.5,632.75,664.29,631.33,661.45,629.46z"/>
		</g>
	</g>
	<g>
	</g>
	<g>
	</g>
</g>
</svg>
